# xmcd CD database file
#
# Track frame offsets:
#	182
#	21182
#	35282
#	52380
#	71357
#	92975
#	109150
#	126255
#	148877
#	167327
#
# Disc length: 2479 seconds
#
# Revision: 0
# Processed by: cddbd v1.5PL3 Copyright (c) Steve Scherf et al.
# Submitted via: CDex 1.50beta10
#
DISCID=8e09ad0a
DTITLE=Sunnyland Slim - Be Careful How You Vote
DYEAR=1990
DGENRE=Blues
TTITLE0=You Can't Have It All
TTITLE1=Workin' Two Jobs
TTITLE2=Have A Good Day Now
TTITLE3=Chicago Jump
TTITLE4=Past Life
TTITLE5=Be Careful How You Vote
TTITLE6=Johnson Machine Gun
TTITLE7=Speak Once And Think Twice
TTITLE8=Midnight Jump
TTITLE9=Patience Like Job
EXTD=YEAR: 1990
EXTT0=
EXTT1=
EXTT2=
EXTT3=
EXTT4=
EXTT5=
EXTT6=
EXTT7=
EXTT8=
EXTT9=
PLAYORDER=
